<svg width="489" height="130" viewBox="0 0 489 130" fill="none" xmlns="http://www.w3.org/2000/svg">
<path d="M426.478 0C467.939 2.02739e-05 488.67 20.6579 488.67 61.9736C488.67 82.8505 483.56 99.2747 473.341 111.246C463.267 123.217 447.573 129.203 426.259 129.203C404.506 129.203 388.154 124.093 377.205 113.874C366.402 103.509 361 86.9379 361 64.1631C361 41.8265 366.986 25.5485 378.957 15.3291C390.928 5.10967 406.769 0 426.478 0ZM419.263 16.9785V27.6445C410.858 28.5102 404.815 30.7986 401.134 34.5088C397.453 38.2189 395.612 43.2589 395.612 49.6279C395.612 54.3272 396.563 58.1918 398.465 61.2217C400.367 64.1897 403.158 66.7557 406.839 68.9199C410.581 71.0223 415.858 73.3417 422.668 75.877C424.692 76.6189 426.072 77.3606 426.809 78.1025C427.606 78.7827 428.005 79.5562 428.005 80.4219C428.005 81.6583 427.545 82.5858 426.625 83.2041C425.766 83.8224 424.355 84.1318 422.392 84.1318C420.183 84.1318 418.679 83.7296 417.882 82.9258C417.085 82.06 416.686 80.6376 416.686 78.6592H396.44V97.0244C398.649 98.0138 401.809 99.0038 405.919 99.9932C410.091 100.921 414.539 101.538 419.263 101.848V112.979H431.317V101.755C439.231 101.013 445.244 98.6634 449.354 94.7061C453.526 90.7486 455.612 85.2446 455.612 78.1953C455.612 73.1868 454.477 69.1057 452.207 65.9521C449.998 62.7368 447.084 60.2017 443.465 58.3467C439.907 56.4298 435.244 54.5435 429.478 52.6885C427.269 52.0083 425.765 51.4205 424.968 50.9258C424.171 50.4311 423.772 49.6893 423.771 48.7002C423.771 47.4016 424.202 46.5045 425.061 46.0098C425.981 45.4534 427.453 45.1758 429.478 45.1758C432.852 45.1758 434.539 46.7218 434.539 49.8135H453.864V33.21C451.901 31.9733 448.895 30.7986 444.846 29.6855C440.797 28.5107 436.287 27.7682 431.317 27.459V16.9785H419.263Z" fill="#009DA1"/>
<path d="M355.655 126.356H314.266L306.821 94.822C306.529 93.6541 306.018 91.6832 305.288 88.9093C304.704 85.9895 303.974 83.8726 303.098 82.5587C302.222 81.0988 300.981 80.1498 299.375 79.7118C295.287 79.8578 289.301 79.9308 281.418 79.9308V126.356H242V2.628C259.665 1.31407 276.162 0.657104 291.491 0.657104C305.361 0.657104 316.602 1.82504 325.216 4.16091C333.829 6.35079 340.253 10.2196 344.486 15.7673C348.866 21.169 351.056 28.6146 351.056 38.1041C351.056 47.0096 349.012 54.0172 344.924 59.127C340.837 64.0907 334.267 67.0835 325.216 68.1055V69.4194C330.325 69.8574 334.559 71.5363 337.917 74.4561C341.421 77.23 343.757 80.8068 344.924 85.1865L355.655 126.356ZM281.418 55.1852C282.732 55.3312 285.287 55.4042 289.082 55.4042C300.324 55.4042 306.894 54.4552 308.791 52.5573C310.543 50.8054 311.419 46.7176 311.419 40.294C311.419 34.3083 309.813 30.2205 306.602 28.0306C303.536 25.8407 298.426 24.7458 291.272 24.7458C289.666 24.7458 286.382 24.8918 281.418 25.1838V55.1852Z" fill="#009DA1"/>
<path d="M195.514 87.0825V126.356H156.439V87.5141L114.76 3.3562H154.486L170.984 43.2773C172.721 47.3053 174.313 51.5492 175.76 56.0088H176.194C177.786 51.1176 179.378 46.7299 180.97 42.8457L197.251 3.3562H236.76L195.514 87.0825Z" fill="#009DA1"/>
<path d="M113.436 57.1559V119.568C103.654 122.779 94.3839 125.115 85.6244 126.575C76.8649 128.035 69.4923 128.765 63.5066 128.765C43.6517 128.765 28.1035 123.582 16.8621 113.217C5.6207 102.851 0 86.9383 0 65.4775C0 43.5787 5.91268 27.2275 17.738 16.4241C29.5634 5.47471 46.2065 0 67.6674 0C78.9088 0 92.413 1.67891 108.18 5.03673C108.18 7.95657 107.888 12.3363 107.304 18.176C106.72 23.8697 106.136 27.8845 105.552 30.2204L97.6688 30.0014C88.0333 29.7094 80.5147 29.5634 75.113 29.5634C58.9078 29.5634 50.0753 30.5124 48.6154 32.4103C46.2795 35.1841 44.6006 39.4909 43.5787 45.3306C42.7027 51.1703 42.2647 56.791 42.2647 62.1927C42.2647 71.9741 43.3597 79.5657 45.5496 84.9674C47.7394 90.3691 51.0973 94.1649 55.623 96.3548C60.1488 98.5447 66.2804 99.6396 74.018 99.6396H74.894V57.1559H113.436Z" fill="#009DA1"/>
</svg>
